<svg xmlns="http://www.w3.org/2000/svg" width="200" height="200" viewBox="0 0 200 200" fill="none">
  <rect width="200" height="200" rx="10" fill="#F3F4F6" fill-opacity="0.5"/>
  <path d="M100 40C86.7 40 74.9 45.1 66.4 53.6C57.9 62.1 52.8 73.9 52.8 87.2C52.8 100.5 57.9 112.3 66.4 120.8C74.9 129.3 86.7 134.4 100 134.4C113.3 134.4 125.1 129.3 133.6 120.8C142.1 112.3 147.2 100.5 147.2 87.2C147.2 73.9 142.1 62.1 133.6 53.6C125.1 45.1 113.3 40 100 40ZM100 126.4C88.6 126.4 78.5 122.1 71.2 114.8C63.9 107.5 59.6 97.4 59.6 86C59.6 74.6 63.9 64.5 71.2 57.2C78.5 49.9 88.6 45.6 100 45.6C111.4 45.6 121.5 49.9 128.8 57.2C136.1 64.5 140.4 74.6 140.4 86C140.4 97.4 136.1 107.5 128.8 114.8C121.5 122.1 111.4 126.4 100 126.4Z" fill="#D1D5DB"/>
  <path d="M85.6 69.6C85.6 71.8 87.4 73.6 89.6 73.6C91.8 73.6 93.6 71.8 93.6 69.6C93.6 67.4 91.8 65.6 89.6 65.6C87.4 65.6 85.6 67.4 85.6 69.6Z" fill="#9CA3AF"/>
  <path d="M106.4 69.6C106.4 71.8 108.2 73.6 110.4 73.6C112.6 73.6 114.4 71.8 114.4 69.6C114.4 67.4 112.6 65.6 110.4 65.6C108.2 65.6 106.4 67.4 106.4 69.6Z" fill="#9CA3AF"/>
  <path d="M75.6 92.8C75.6 93.9 76.1 95 77 95.7C77.9 96.4 79.1 96.8 80.2 96.6C82.8 96.3 85.4 96 87.9 96C90.5 96 93 96.3 95.6 96.6C98.1 97 100.7 97.2 103.3 97.2C108.2 97.2 113.1 96.5 117.8 95.2C119.2 94.8 120.5 93.9 121.3 92.6C122.8 90.5 121.2 88 118.8 87.3C118.6 87.2 118.4 87.2 118.2 87.1C113.5 86 108.6 85.6 103.8 85.8C98.9 86 94.1 87 89.3 88.5C85.4 89.7 81.4 91.5 76.8 92.2C76.5 92.3 76.1 92.3 75.8 92.4C75.7 92.5 75.6 92.7 75.6 92.8Z" fill="#9CA3AF"/>
  <path d="M165.6 145.2C162.9 141.5 160.3 137.8 157.6 134.2C155 130.6 152.4 126.9 149.7 123.2C149.7 123.1 149.7 123.1 149.7 123C151.8 120.2 153.6 117.2 155.1 114C156.6 110.8 157.7 107.5 158.5 104C159.3 100.5 159.7 97 159.8 93.4C159.9 89.9 159.7 86.3 159.1 82.8C158.5 79.3 157.6 75.8 156.3 72.5C155.1 69.2 153.6 66 151.8 63.1C150 60.1 147.9 57.3 145.6 54.7C143.2 52.1 140.7 49.7 137.9 47.6C135.2 45.5 132.2 43.6 129.2 42C126.1 40.4 122.9 39.1 119.6 38.1C116.2 37.1 112.8 36.4 109.3 36C105.8 35.6 102.2 35.5 98.6 35.8C95.1 36 91.5 36.6 88.1 37.4C84.6 38.3 81.3 39.4 78.1 40.9C74.9 42.4 71.8 44.1 69 46.1C66.1 48 63.5 50.3 61 52.7C58.5 55.2 56.3 57.8 54.3 60.7C52.3 63.5 50.6 66.6 49.2 69.8C47.8 73 46.6 76.3 45.8 79.8C45 83.2 44.4 86.8 44.3 90.4C44.1 94 44.2 97.6 44.7 101.1C45.2 104.7 46 108.2 47.1 111.6C48.2 115 49.7 118.3 51.5 121.4C52.1 123.9 52.6 126.3 52.6 128.8C52.7 133.7 51.6 138.5 49.6 142.9C46.9 147.5 44.2 152.1 41.6 156.8C39.7 160 37.9 163.3 36 166.6C35.4 167.8 35.3 169.3 35.8 170.6C36.3 171.9 37.4 172.8 38.7 173.2C40.1 173.6 41.6 173.4 42.7 172.6C43.9 171.8 44.6 170.5 45.3 169.3C46.5 167.2 47.8 165.1 49 163C50.3 160.9 51.5 158.8 52.8 156.7C54 154.7 55.3 152.6 56.5 150.5C58.3 147.5 60.1 144.5 61.9 141.5C62 141.3 62.1 141.1 62.3 140.9C63.4 143 64.7 145 66.1 146.9C67.9 149.4 69.8 151.8 72 153.9C74.2 156.1 76.5 158 79 159.8C81.5 161.5 84.1 163 86.9 164.3C89.7 165.6 92.6 166.6 95.6 167.4C98.5 168.2 101.6 168.8 104.6 169.1C107.7 169.4 110.8 169.5 113.9 169.3C116.9 169.1 120 168.6 123 167.9C126 167.2 129 166.2 131.9 165C134.7 163.8 137.5 162.3 140.1 160.7C142.7 159 145.1 157.1 147.4 155C149.7 152.9 151.7 150.7 153.6 148.2C154.4 147.2 155.3 146.2 156.1 145.2C156.2 145.1 156.3 145 156.4 144.9C156.5 144.8 156.6 144.7 156.7 144.5C157.6 143.6 158.4 142.6 159.3 141.6C161.2 139.6 163 137.5 164.9 135.5C165.8 137.2 166.6 139 167.5 140.7C168.2 142.1 168.9 143.5 169.6 144.9C170.4 146.7 172 147.8 173.9 148C175.9 148.2 177.7 147.1 178.6 145.3C179.4 143.5 179.1 141.3 177.9 139.8C178 141.3 178 142.7 177.9 144.2C177.8 146.5 177.6 148.7 177.3 151C177 153.2 176.5 155.4 175.9 157.6C175.3 159.8 174.5 162 173.5 164.1C172.6 166.2 171.5 168.2 170.2 170.1C169 172.1 167.6 173.9 166 175.6C164.5 177.3 162.8 178.9 161 180.3C159.2 181.7 157.3 183 155.3 184C153.3 185.1 151.2 186 149 186.8C146.8 187.5 144.6 188.1 142.3 188.5C140 188.9 137.7 189.1 135.4 189.1C133.1 189.1 130.8 188.9 128.6 188.5C126.3 188.1 124.1 187.6 121.9 186.9C119.7 186.2 117.6 185.3 115.6 184.2C113.6 183.1 111.7 181.9 109.9 180.5C108.1 179.1 106.5 177.5 104.9 175.8C104.8 175.6 104.6 175.5 104.5 175.4C101.7 173.8 99.2 172 96.7 170C94.3 168 91.9 165.9 89.7 163.7C87.5 161.5 85.4 159.1 83.4 156.7C81.4 154.3 79.7 151.8 78.1 149.1C76.6 146.5 75.2 143.7 74.1 140.9C72.9 138.1 72 135.2 71.3 132.2C70.6 129.2 70.1 126.2 69.9 123.1C69.6 120.1 69.6 117 69.8 113.9C70 110.9 70.5 107.8 71.2 104.8C71.9 101.8 72.9 98.8 74.1 96C75.3 93.1 76.8 90.3 78.5 87.7C80.2 85.1 82.1 82.7 84.2 80.4C86.3 78.1 88.5 76.1 91 74.2C93.5 72.3 96.1 70.7 98.9 69.3C101.7 67.9 104.6 66.8 107.6 66C110.6 65.2 113.7 64.7 116.7 64.4C119.8 64.1 122.9 64.1 126 64.3C129 64.5 132.1 65 135.1 65.7C138.1 66.4 141.1 67.4 143.9 68.6C146.8 69.8 149.5 71.3 152.1 73C154.7 74.7 157.1 76.6 159.4 78.7C161.7 80.8 163.7 83.2 165.5 85.7C167.3 88.2 168.9 90.9 170.2 93.7C171.5 96.5 172.5 99.4 173.3 102.4C174.1 105.4 174.6 108.5 174.9 111.5C174.6 111.1 174.3 110.7 174 110.2C172.6 108.3 171.2 106.4 169.8 104.5C168.4 102.6 167 100.7 165.5 98.8C164.1 96.9 162.7 95 161.3 93.1C159.9 91.2 158.5 89.3 157.1 87.4C156.7 86.8 156.4 86.3 155.9 85.7C154.6 83.9 153.2 82.1 151.9 80.2C151.3 79.3 150.1 78.9 149.1 79C148.1 79.2 147.2 79.9 146.7 80.8C146.2 81.8 146.2 82.9 146.6 83.9C147.1 84.9 147.9 85.6 149 85.9C148.8 85.8 148.7 85.8 148.6 85.8C147.5 85.9 146.4 86.5 145.7 87.4C145 88.3 144.6 89.5 144.9 90.6C148.9 98.1 152.8 105.6 156.8 113.1C157.3 114.1 157.9 115.1 158.4 116.1C156.5 114.5 154.7 112.7 153.1 110.9C151.4 109 150 107 148.7 104.8C147.4 102.7 146.3 100.4 145.3 98.1C144.3 95.8 143.6 93.4 143 91C142.5 88.6 142.1 86.1 142 83.6C141.9 81.1 142 78.6 142.4 76.1C142.7 73.6 143.3 71.2 144.1 68.8C145 66.4 146.2 64.1 147.5 61.9C148.9 59.7 150.5 57.7 152.3 55.8C154.1 53.9 156.1 52.2 158.2 50.7C160.3 49.2 162.6 48 164.9 47.1C167.3 46.1 169.7 45.5 172.2 45.1C169.4 44.2 166.5 43.4 163.5 42.7C160.6 42 157.5 41.5 154.5 41.2C151.5 40.9 148.4 40.9 145.3 41.1C142.3 41.3 139.3 41.8 136.3 42.5C133.3 43.2 130.3 44.2 127.6 45.4C124.8 46.6 122.1 48.1 119.6 49.8C117.1 51.5 114.7 53.4 112.5 55.5C110.3 57.6 108.3 59.9 106.5 62.4C106.8 62.4 107.1 62.3 107.4 62.3C111.4 62.1 115.3 62.2 119.3 62.5C123.3 62.8 127.2 63.4 131.1 64.2C135.1 65 138.9 66.1 142.7 67.4C146.5 68.8 150.1 70.4 153.6 72.2C157.1 74.1 160.4 76.2 163.5 78.5C166.6 80.8 169.5 83.4 172.2 86.2C174.8 89 177.3 92 179.5 95.2C181.7 98.4 183.6 101.8 185.2 105.3C186.8 108.8 188.1 112.4 189.1 116.2C190.1 119.9 190.7 123.8 190.9 127.7C191.2 131.6 191 135.5 190.4 139.4C189.9 143.3 188.9 147.1 187.6 150.8C186.3 154.5 184.6 158.1 182.5 161.5C180.5 164.9 178.1 168.1 175.4 171.1C172.7 174.1 169.8 176.8 166.6 179.3C163.4 181.7 160 183.8 156.4 185.7C152.8 187.5 149 189 145.1 190.2C141.2 191.4 137.2 192.2 133.1 192.7C129 193.1 124.9 193.2 120.8 192.9C116.7 192.7 112.7 192.1 108.7 191.1C104.7 190.2 100.8 188.9 97.1 187.3C93.3 185.7 89.7 183.8 86.2 181.6C82.8 179.4 79.5 176.9 76.6 174.1C73.6 171.3 70.9 168.3 68.5 165C66.1 161.8 64 158.3 62.2 154.7C60.4 151.1 59 147.3 57.9 143.4C57.3 141.1 56.9 138.8 56.5 136.5C56.2 134.2 56 131.9 55.9 129.6C55.8 127.3 55.8 125 56 122.7C56.2 121.3 56.4 119.9 56.7 118.5C57.7 120.5 58.7 122.5 59.8 124.5C63.3 131.5 66.9 138.4 70.5 145.4C71.9 148.4 73.3 151.4 74.7 154.4C75.5 156 77 157.1 78.9 157.4C80.7 157.6 82.5 156.8 83.4 155.2C84.4 153.6 84.3 151.6 83.4 150.1C83.3 150 83.2 149.9 83.1 149.7C82.3 148.3 81.5 146.9 80.7 145.5C78.4 141.3 76.1 137.1 73.8 132.9C71.4 128.7 69.1 124.5 66.8 120.3C65.3 117.5 63.8 114.7 62.4 111.9C61.2 109.6 60.1 107.1 59.3 104.7C58.4 102.2 57.8 99.7 57.4 97.1C57 94.5 56.9 91.9 57.0 89.3C57.1 86.7 57.4 84.1 58.0 81.6C58.6 79 59.4 76.5 60.4 74.1C61.5 71.7 62.7 69.3 64.2 67.1C65.7 64.9 67.3 62.8 69.1 60.9C70.9 59 72.9 57.2 75.0 55.7C77.2 54.1 79.5 52.8 81.9 51.6C84.3 50.5 86.8 49.6 89.4 48.9C92 48.2 94.6 47.8 97.3 47.6C99.9 47.4 102.6 47.4 105.2 47.6C107.8 47.8 110.4 48.3 113 49C115.6 49.7 118.1 50.6 120.5 51.8C122.9 52.9 125.2 54.3 127.4 55.8C129.6 57.3 131.6 59.1 133.5 61C135.4 62.9 137.1 65 138.5 67.3C140 69.5 141.3 71.9 142.3 74.4C143.4 76.9 144.2 79.5 144.8 82.1C145.4 84.7 145.7 87.4 145.8 90.1C145.9 92.8 145.7 95.5 145.2 98.1C144.8 100.8 144 103.4 143.1 105.9C142.1 108.5 140.8 110.9 139.4 113.2C137.9 115.5 136.2 117.7 134.3 119.7C132.4 121.7 130.3 123.5 128 125.1C129.3 125.9 130.6 126.6 131.9 127.4C134.5 128.9 137 130.6 139.4 132.3C141.8 134.1 144.1 136 146.2 138C148.3 139.9 150.2 142 152 144.2C154.1 141.3 156.2 138.4 158.3 135.5C160.4 138.7 162.5 142 164.7 145.2C164.8 145.3 164.9 145.4 165 145.5C165.2 145.4 165.4 145.3 165.6 145.2Z" fill="#9CA3AF"/>
</svg> 